<?xml version="1.0" encoding="UTF-8" standalone="no"?>
<!DOCTYPE svg PUBLIC "-//W3C//DTD SVG 1.1//EN"
 "http://www.w3.org/Graphics/SVG/1.1/DTD/svg11.dtd">
<!-- Generated by graphviz version 2.43.0 (0)
 -->
<!-- Title: CPU_Block Pages: 1 -->
<svg width="1920pt" height="468pt"
 viewBox="0.00 0.00 1920.25 468.00" xmlns="http://www.w3.org/2000/svg" xmlns:xlink="http://www.w3.org/1999/xlink">
<g id="graph0" class="graph" transform="scale(1 1) rotate(0) translate(4 464)">
<title>CPU_Block</title>
<polygon fill="white" stroke="transparent" points="-4,4 -4,-464 1916.25,-464 1916.25,4 -4,4"/>
<text text-anchor="middle" x="956.12" y="-10" font-family="Times,serif" font-size="20.00">Linux Side Transmit File State Diagram</text>
<!-- Start -->
<g id="node1" class="node">
<title>Start</title>
<polygon fill="lightskyblue" stroke="lightskyblue" points="54,-356 0,-356 0,-320 54,-320 54,-356"/>
<text text-anchor="middle" x="27" y="-334.3" font-family="Times,serif" font-size="14.00">Start</text>
</g>
<!-- Send Tx0\n(Filename) -->
<g id="node4" class="node">
<title>Send Tx0\n(Filename)</title>
<ellipse fill="aquamarine" stroke="aquamarine" cx="156.76" cy="-338" rx="65.52" ry="26.74"/>
<text text-anchor="middle" x="156.76" y="-341.8" font-family="Times,serif" font-size="14.00">Send Tx0</text>
<text text-anchor="middle" x="156.76" y="-326.8" font-family="Times,serif" font-size="14.00">(Filename)</text>
</g>
<!-- Start&#45;&gt;Send Tx0\n(Filename) -->
<g id="edge1" class="edge">
<title>Start&#45;&gt;Send Tx0\n(Filename)</title>
<path fill="none" stroke="black" d="M54.16,-338C62.13,-338 71.31,-338 80.83,-338"/>
<polygon fill="black" stroke="black" points="80.84,-341.5 90.84,-338 80.84,-334.5 80.84,-341.5"/>
</g>
<!-- End -->
<g id="node2" class="node">
<title>End</title>
<polygon fill="lightskyblue" stroke="lightskyblue" points="1911.25,-66 1857.25,-66 1857.25,-30 1911.25,-30 1911.25,-66"/>
<text text-anchor="middle" x="1884.25" y="-44.3" font-family="Times,serif" font-size="14.00">End</text>
</g>
<!-- Error -->
<g id="node3" class="node">
<title>Error</title>
<polygon fill="#ff3030" stroke="#ff3030" points="1912.25,-259 1856.25,-259 1856.25,-223 1912.25,-223 1912.25,-259"/>
<text text-anchor="middle" x="1884.25" y="-237.3" font-family="Times,serif" font-size="14.00">Error</text>
</g>
<!-- Tx0 Await\nResponse -->
<g id="node5" class="node">
<title>Tx0 Await\nResponse</title>
<ellipse fill="aquamarine" stroke="aquamarine" cx="384.75" cy="-338" rx="62.45" ry="26.74"/>
<text text-anchor="middle" x="384.75" y="-341.8" font-family="Times,serif" font-size="14.00">Tx0 Await</text>
<text text-anchor="middle" x="384.75" y="-326.8" font-family="Times,serif" font-size="14.00">Response</text>
</g>
<!-- Send Tx0\n(Filename)&#45;&gt;Tx0 Await\nResponse -->
<g id="edge2" class="edge">
<title>Send Tx0\n(Filename)&#45;&gt;Tx0 Await\nResponse</title>
<path fill="none" stroke="black" d="M201.6,-357.74C213.94,-362.38 227.54,-366.65 240.52,-369 268.51,-374.07 276.57,-374.27 304.52,-369 313.69,-367.27 323.15,-364.51 332.21,-361.33"/>
<polygon fill="black" stroke="black" points="333.7,-364.51 341.85,-357.74 331.26,-357.95 333.7,-364.51"/>
</g>
<!-- Tx0 Await\nResponse&#45;&gt;Error -->
<g id="edge4" class="edge">
<title>Tx0 Await\nResponse&#45;&gt;Error</title>
<path fill="none" stroke="black" d="M414.41,-361.93C450.06,-389.19 513.89,-430 576.61,-430 576.61,-430 576.61,-430 1566.9,-430 1689.69,-430 1746.04,-459.1 1838.25,-378 1869.52,-350.49 1879.15,-300.87 1882.06,-269.5"/>
<polygon fill="black" stroke="black" points="1885.57,-269.46 1882.83,-259.23 1878.59,-268.94 1885.57,-269.46"/>
<text text-anchor="middle" x="963.76" y="-448.8" font-family="Times,serif" font-size="14.00">Timeout</text>
<text text-anchor="middle" x="963.76" y="-433.8" font-family="Times,serif" font-size="14.00">Out of retries</text>
</g>
<!-- Tx0 Await\nResponse&#45;&gt;Error -->
<g id="edge7" class="edge">
<title>Tx0 Await\nResponse&#45;&gt;Error</title>
<path fill="none" stroke="black" d="M441.02,-349.56C478.98,-356.5 530.63,-364 576.61,-364 576.61,-364 576.61,-364 1566.9,-364 1688.61,-364 1738.63,-396.94 1838.25,-327 1857.86,-313.23 1869.57,-288.22 1876.1,-268.71"/>
<polygon fill="black" stroke="black" points="1879.46,-269.68 1879.06,-259.09 1872.77,-267.62 1879.46,-269.68"/>
<text text-anchor="middle" x="963.76" y="-382.8" font-family="Times,serif" font-size="14.00">NAK (not CRC)</text>
<text text-anchor="middle" x="963.76" y="-367.8" font-family="Times,serif" font-size="14.00">or unexpected packet type</text>
</g>
<!-- Tx0 Await\nResponse&#45;&gt;Error -->
<g id="edge8" class="edge">
<title>Tx0 Await\nResponse&#45;&gt;Error</title>
<path fill="none" stroke="black" d="M441.45,-326.82C479.38,-320.16 530.83,-313 576.61,-313 576.61,-313 576.61,-313 1566.9,-313 1689.45,-313 1722.13,-303.2 1838.25,-264 1841.14,-263.02 1844.09,-261.88 1847.01,-260.65"/>
<polygon fill="black" stroke="black" points="1848.57,-263.78 1856.2,-256.43 1845.65,-257.42 1848.57,-263.78"/>
<text text-anchor="middle" x="963.76" y="-316.8" font-family="Times,serif" font-size="14.00">A (abort)</text>
</g>
<!-- Tx0 Await\nResponse&#45;&gt;Send Tx0\n(Filename) -->
<g id="edge3" class="edge">
<title>Tx0 Await\nResponse&#45;&gt;Send Tx0\n(Filename)</title>
<path fill="none" stroke="black" d="M322.77,-335.46C316.6,-335.27 310.44,-335.11 304.52,-335 276.08,-334.46 268.96,-334.48 240.52,-335 237.85,-335.05 235.13,-335.11 232.39,-335.17"/>
<polygon fill="black" stroke="black" points="232.27,-331.67 222.36,-335.43 232.45,-338.67 232.27,-331.67"/>
<text text-anchor="middle" x="272.52" y="-353.8" font-family="Times,serif" font-size="14.00">Timeout,</text>
<text text-anchor="middle" x="272.52" y="-338.8" font-family="Times,serif" font-size="14.00">retry</text>
</g>
<!-- Tx0 Await\nResponse&#45;&gt;Send Tx0\n(Filename) -->
<g id="edge6" class="edge">
<title>Tx0 Await\nResponse&#45;&gt;Send Tx0\n(Filename)</title>
<path fill="none" stroke="black" d="M347.52,-316.43C334.43,-309.79 319.25,-303.35 304.52,-300 276.79,-293.69 268.31,-293.93 240.52,-300 228.7,-302.59 216.54,-307.02 205.31,-311.97"/>
<polygon fill="black" stroke="black" points="203.73,-308.85 196.13,-316.22 206.67,-315.2 203.73,-308.85"/>
<text text-anchor="middle" x="272.52" y="-318.8" font-family="Times,serif" font-size="14.00">NAK</text>
<text text-anchor="middle" x="272.52" y="-303.8" font-family="Times,serif" font-size="14.00">(CRC)</text>
</g>
<!-- Build next\nTxn (data)\npacket -->
<g id="node6" class="node">
<title>Build next\nTxn (data)\npacket</title>
<ellipse fill="aquamarine" stroke="aquamarine" cx="577.61" cy="-243" rx="63.78" ry="37.45"/>
<text text-anchor="middle" x="577.61" y="-254.3" font-family="Times,serif" font-size="14.00">Build next</text>
<text text-anchor="middle" x="577.61" y="-239.3" font-family="Times,serif" font-size="14.00">Txn (data)</text>
<text text-anchor="middle" x="577.61" y="-224.3" font-family="Times,serif" font-size="14.00">packet</text>
</g>
<!-- Tx0 Await\nResponse&#45;&gt;Build next\nTxn (data)\npacket -->
<g id="edge5" class="edge">
<title>Tx0 Await\nResponse&#45;&gt;Build next\nTxn (data)\npacket</title>
<path fill="none" stroke="black" d="M416.26,-314.6C430.54,-304.34 448.1,-292.68 464.97,-284 479.57,-276.49 495.87,-269.69 511.4,-263.89"/>
<polygon fill="black" stroke="black" points="512.76,-267.12 520.95,-260.4 510.36,-260.54 512.76,-267.12"/>
<text text-anchor="middle" x="480.47" y="-287.8" font-family="Times,serif" font-size="14.00">ACK</text>
</g>
<!-- Send\npacket -->
<g id="node7" class="node">
<title>Send\npacket</title>
<ellipse fill="aquamarine" stroke="aquamarine" cx="723.51" cy="-243" rx="45.01" ry="26.74"/>
<text text-anchor="middle" x="723.51" y="-246.8" font-family="Times,serif" font-size="14.00">Send</text>
<text text-anchor="middle" x="723.51" y="-231.8" font-family="Times,serif" font-size="14.00">packet</text>
</g>
<!-- Build next\nTxn (data)\npacket&#45;&gt;Send\npacket -->
<g id="edge9" class="edge">
<title>Build next\nTxn (data)\npacket&#45;&gt;Send\npacket</title>
<path fill="none" stroke="black" d="M641.31,-243C650.24,-243 659.36,-243 668.11,-243"/>
<polygon fill="black" stroke="black" points="668.18,-246.5 678.18,-243 668.18,-239.5 668.18,-246.5"/>
</g>
<!-- Txn Await\nResponse -->
<g id="node8" class="node">
<title>Txn Await\nResponse</title>
<ellipse fill="aquamarine" stroke="aquamarine" cx="963.76" cy="-202" rx="62.45" ry="26.74"/>
<text text-anchor="middle" x="963.76" y="-205.8" font-family="Times,serif" font-size="14.00">Txn Await</text>
<text text-anchor="middle" x="963.76" y="-190.8" font-family="Times,serif" font-size="14.00">Response</text>
</g>
<!-- Send\npacket&#45;&gt;Txn Await\nResponse -->
<g id="edge10" class="edge">
<title>Send\npacket&#45;&gt;Txn Await\nResponse</title>
<path fill="none" stroke="black" d="M755.75,-262.06C765.35,-266.94 776.18,-271.51 786.76,-274 814.45,-280.51 823.47,-282.02 850.76,-274 878.76,-265.78 906.38,-248.15 927.19,-232.4"/>
<polygon fill="black" stroke="black" points="929.35,-235.16 935.1,-226.26 925.05,-229.63 929.35,-235.16"/>
</g>
<!-- Txn Await\nResponse&#45;&gt;Error -->
<g id="edge12" class="edge">
<title>Txn Await\nResponse&#45;&gt;Error</title>
<path fill="none" stroke="black" d="M1016.56,-216.3C1035.38,-221.01 1056.91,-225.85 1076.76,-229 1370.13,-275.56 1731.06,-253.2 1846.15,-244.17"/>
<polygon fill="black" stroke="black" points="1846.52,-247.65 1856.2,-243.36 1845.96,-240.67 1846.52,-247.65"/>
<text text-anchor="middle" x="1388.55" y="-276.8" font-family="Times,serif" font-size="14.00">Timeout</text>
<text text-anchor="middle" x="1388.55" y="-261.8" font-family="Times,serif" font-size="14.00">Out of retries</text>
</g>
<!-- Txn Await\nResponse&#45;&gt;Error -->
<g id="edge16" class="edge">
<title>Txn Await\nResponse&#45;&gt;Error</title>
<path fill="none" stroke="black" d="M1026.27,-203.37C1123.43,-205.65 1318.36,-210.7 1483.55,-218 1616.97,-223.89 1775.27,-233.9 1845.94,-238.52"/>
<polygon fill="black" stroke="black" points="1845.91,-242.03 1856.12,-239.19 1846.37,-235.04 1845.91,-242.03"/>
<text text-anchor="middle" x="1388.55" y="-236.8" font-family="Times,serif" font-size="14.00">NAK (not CRC)</text>
<text text-anchor="middle" x="1388.55" y="-221.8" font-family="Times,serif" font-size="14.00">or unexpected packet type</text>
</g>
<!-- Txn Await\nResponse&#45;&gt;Error -->
<g id="edge17" class="edge">
<title>Txn Await\nResponse&#45;&gt;Error</title>
<path fill="none" stroke="black" d="M1025.95,-199.58C1091.97,-197.1 1200.19,-193.42 1293.55,-192 1536,-188.31 1602.37,-166.81 1838.25,-223 1840.92,-223.64 1843.64,-224.4 1846.35,-225.26"/>
<polygon fill="black" stroke="black" points="1845.46,-228.65 1856.06,-228.65 1847.77,-222.04 1845.46,-228.65"/>
<text text-anchor="middle" x="1388.55" y="-195.8" font-family="Times,serif" font-size="14.00">A (abort)</text>
</g>
<!-- Txn Await\nResponse&#45;&gt;Build next\nTxn (data)\npacket -->
<g id="edge13" class="edge">
<title>Txn Await\nResponse&#45;&gt;Build next\nTxn (data)\npacket</title>
<path fill="none" stroke="black" d="M913,-186.45C855.25,-170.94 757.78,-152.65 678.25,-177 658.48,-183.05 639.01,-194.39 622.6,-205.98"/>
<polygon fill="black" stroke="black" points="620.32,-203.32 614.31,-212.04 624.45,-208.97 620.32,-203.32"/>
<text text-anchor="middle" x="723.51" y="-195.8" font-family="Times,serif" font-size="14.00">ACK not</text>
<text text-anchor="middle" x="723.51" y="-180.8" font-family="Times,serif" font-size="14.00">last block</text>
</g>
<!-- Txn Await\nResponse&#45;&gt;Send\npacket -->
<g id="edge11" class="edge">
<title>Txn Await\nResponse&#45;&gt;Send\npacket</title>
<path fill="none" stroke="black" d="M905.76,-211.81C866.63,-218.54 815.09,-227.41 776.98,-233.97"/>
<polygon fill="black" stroke="black" points="776.36,-230.52 767.1,-235.67 777.55,-237.42 776.36,-230.52"/>
<text text-anchor="middle" x="818.76" y="-251.8" font-family="Times,serif" font-size="14.00">Timeout,</text>
<text text-anchor="middle" x="818.76" y="-236.8" font-family="Times,serif" font-size="14.00">retry</text>
</g>
<!-- Txn Await\nResponse&#45;&gt;Send\npacket -->
<g id="edge15" class="edge">
<title>Txn Await\nResponse&#45;&gt;Send\npacket</title>
<path fill="none" stroke="black" d="M911.85,-187.17C875.82,-179.29 826.95,-174 786.76,-189 773.73,-193.86 761.62,-202.82 751.61,-212.06"/>
<polygon fill="black" stroke="black" points="749.09,-209.63 744.38,-219.12 753.98,-214.64 749.09,-209.63"/>
<text text-anchor="middle" x="818.76" y="-207.8" font-family="Times,serif" font-size="14.00">NAK</text>
<text text-anchor="middle" x="818.76" y="-192.8" font-family="Times,serif" font-size="14.00">(CRC)</text>
</g>
<!-- Send Exit -->
<g id="node9" class="node">
<title>Send Exit</title>
<ellipse fill="aquamarine" stroke="aquamarine" cx="1219.66" cy="-114" rx="55.79" ry="18"/>
<text text-anchor="middle" x="1219.66" y="-110.3" font-family="Times,serif" font-size="14.00">Send Exit</text>
</g>
<!-- Txn Await\nResponse&#45;&gt;Send Exit -->
<g id="edge14" class="edge">
<title>Txn Await\nResponse&#45;&gt;Send Exit</title>
<path fill="none" stroke="black" d="M994.82,-178.62C1016.41,-163.09 1046.86,-143.67 1076.76,-133 1101.14,-124.3 1129.17,-119.54 1153.84,-116.94"/>
<polygon fill="black" stroke="black" points="1154.21,-120.43 1163.83,-115.99 1153.55,-113.46 1154.21,-120.43"/>
<text text-anchor="middle" x="1111.26" y="-151.8" font-family="Times,serif" font-size="14.00">ACK</text>
<text text-anchor="middle" x="1111.26" y="-136.8" font-family="Times,serif" font-size="14.00">last block</text>
</g>
<!-- Exit Await\nResponse -->
<g id="node10" class="node">
<title>Exit Await\nResponse</title>
<ellipse fill="aquamarine" stroke="aquamarine" cx="1565.9" cy="-92" rx="64.19" ry="26.74"/>
<text text-anchor="middle" x="1565.9" y="-95.8" font-family="Times,serif" font-size="14.00">Exit Await</text>
<text text-anchor="middle" x="1565.9" y="-80.8" font-family="Times,serif" font-size="14.00">Response</text>
</g>
<!-- Send Exit&#45;&gt;Exit Await\nResponse -->
<g id="edge18" class="edge">
<title>Send Exit&#45;&gt;Exit Await\nResponse</title>
<path fill="none" stroke="black" d="M1267.74,-123.37C1320.77,-132.3 1409.25,-142.31 1483.55,-127 1494.27,-124.79 1505.32,-121.1 1515.69,-116.93"/>
<polygon fill="black" stroke="black" points="1517.15,-120.11 1524.99,-112.99 1514.42,-113.67 1517.15,-120.11"/>
</g>
<!-- Exit Await\nResponse&#45;&gt;End -->
<g id="edge21" class="edge">
<title>Exit Await\nResponse&#45;&gt;End</title>
<path fill="none" stroke="black" d="M1601.04,-69.25C1615.05,-61.19 1631.82,-53.11 1648.25,-49 1716.87,-31.82 1800.34,-37.46 1847.06,-42.88"/>
<polygon fill="black" stroke="black" points="1846.66,-46.36 1857.01,-44.1 1847.51,-39.41 1846.66,-46.36"/>
<text text-anchor="middle" x="1743.25" y="-52.8" font-family="Times,serif" font-size="14.00">ACK</text>
</g>
<!-- Exit Await\nResponse&#45;&gt;Error -->
<g id="edge20" class="edge">
<title>Exit Await\nResponse&#45;&gt;Error</title>
<path fill="none" stroke="black" d="M1616.43,-108.75C1626.85,-111.84 1637.84,-114.79 1648.25,-117 1689.85,-125.84 1804.03,-114.74 1838.25,-140 1861.55,-157.21 1873.01,-189.22 1878.5,-212.6"/>
<polygon fill="black" stroke="black" points="1875.13,-213.6 1880.62,-222.66 1881.98,-212.15 1875.13,-213.6"/>
<text text-anchor="middle" x="1743.25" y="-158.8" font-family="Times,serif" font-size="14.00">Timeout</text>
<text text-anchor="middle" x="1743.25" y="-143.8" font-family="Times,serif" font-size="14.00">Out of retries</text>
</g>
<!-- Exit Await\nResponse&#45;&gt;Error -->
<g id="edge23" class="edge">
<title>Exit Await\nResponse&#45;&gt;Error</title>
<path fill="none" stroke="black" d="M1625.53,-81.75C1695.17,-70.96 1805.99,-58.65 1838.25,-83 1858.98,-98.65 1872.99,-172.02 1879.35,-213.04"/>
<polygon fill="black" stroke="black" points="1875.89,-213.59 1880.83,-222.96 1882.81,-212.56 1875.89,-213.59"/>
<text text-anchor="middle" x="1743.25" y="-101.8" font-family="Times,serif" font-size="14.00">NAK (not CRC)</text>
<text text-anchor="middle" x="1743.25" y="-86.8" font-family="Times,serif" font-size="14.00">or unexpected packet type</text>
</g>
<!-- Exit Await\nResponse&#45;&gt;Send Exit -->
<g id="edge19" class="edge">
<title>Exit Await\nResponse&#45;&gt;Send Exit</title>
<path fill="none" stroke="black" d="M1502.3,-87.35C1447.08,-84.41 1364.55,-82.84 1293.55,-93 1285.21,-94.19 1276.49,-96.1 1268.09,-98.29"/>
<polygon fill="black" stroke="black" points="1267.14,-94.93 1258.43,-100.97 1269,-101.67 1267.14,-94.93"/>
<text text-anchor="middle" x="1388.55" y="-111.8" font-family="Times,serif" font-size="14.00">Timeout,</text>
<text text-anchor="middle" x="1388.55" y="-96.8" font-family="Times,serif" font-size="14.00">retry</text>
</g>
<!-- Exit Await\nResponse&#45;&gt;Send Exit -->
<g id="edge22" class="edge">
<title>Exit Await\nResponse&#45;&gt;Send Exit</title>
<path fill="none" stroke="black" d="M1528.98,-69.94C1515.28,-62.72 1499.19,-55.64 1483.55,-52 1401.3,-32.87 1372.81,-22.85 1293.55,-52 1273.29,-59.45 1254.82,-75.31 1241.54,-89.12"/>
<polygon fill="black" stroke="black" points="1238.92,-86.8 1234.72,-96.52 1244.07,-91.54 1238.92,-86.8"/>
<text text-anchor="middle" x="1388.55" y="-70.8" font-family="Times,serif" font-size="14.00">NAK</text>
<text text-anchor="middle" x="1388.55" y="-55.8" font-family="Times,serif" font-size="14.00">(CRC)</text>
</g>
</g>
</svg>
