<?xml version="1.0" encoding="UTF-8" standalone="no"?>
<!DOCTYPE svg PUBLIC "-//W3C//DTD SVG 1.1//EN"
 "http://www.w3.org/Graphics/SVG/1.1/DTD/svg11.dtd">
<!-- Generated by graphviz version 2.43.0 (0)
 -->
<!-- Title: CPU_Block Pages: 1 -->
<svg width="1677pt" height="392pt"
 viewBox="0.00 0.00 1677.30 391.51" xmlns="http://www.w3.org/2000/svg" xmlns:xlink="http://www.w3.org/1999/xlink">
<g id="graph0" class="graph" transform="scale(1 1) rotate(0) translate(4 387.51)">
<title>CPU_Block</title>
<polygon fill="white" stroke="transparent" points="-4,4 -4,-387.51 1673.3,-387.51 1673.3,4 -4,4"/>
<text text-anchor="middle" x="834.65" y="-10" font-family="Times,serif" font-size="20.00">Linux Side Master State Diagram</text>
<!-- Start -->
<g id="node1" class="node">
<title>Start</title>
<polygon fill="lightskyblue" stroke="lightskyblue" points="55,-275.51 1,-275.51 1,-239.51 55,-239.51 55,-275.51"/>
<text text-anchor="middle" x="28" y="-253.81" font-family="Times,serif" font-size="14.00">Start</text>
</g>
<!-- Sync\nSequence -->
<g id="node7" class="node">
<title>Sync\nSequence</title>
<ellipse fill="aquamarine" stroke="aquamarine" cx="299.09" cy="-257.51" rx="60.62" ry="26.74"/>
<text text-anchor="middle" x="299.09" y="-261.31" font-family="Times,serif" font-size="14.00">Sync</text>
<text text-anchor="middle" x="299.09" y="-246.31" font-family="Times,serif" font-size="14.00">Sequence</text>
</g>
<!-- Start&#45;&gt;Sync\nSequence -->
<g id="edge1" class="edge">
<title>Start&#45;&gt;Sync\nSequence</title>
<path fill="none" stroke="black" d="M55.29,-257.51C94.88,-257.51 171.18,-257.51 227.73,-257.51"/>
<polygon fill="black" stroke="black" points="228.04,-261.01 238.04,-257.51 228.04,-254.01 228.04,-261.01"/>
</g>
<!-- Error -->
<g id="node2" class="node">
<title>Error</title>
<polygon fill="#ff3030" stroke="#ff3030" points="56,-199.51 0,-199.51 0,-163.51 56,-163.51 56,-199.51"/>
<text text-anchor="middle" x="28" y="-177.81" font-family="Times,serif" font-size="14.00">Error</text>
</g>
<!-- Sync\nSequence  -->
<g id="node11" class="node">
<title>Sync\nSequence </title>
<ellipse fill="aquamarine" stroke="aquamarine" cx="156.64" cy="-181.51" rx="63.78" ry="26.74"/>
<text text-anchor="middle" x="156.64" y="-185.31" font-family="Times,serif" font-size="14.00">Sync</text>
<text text-anchor="middle" x="156.64" y="-170.31" font-family="Times,serif" font-size="14.00">Sequence </text>
</g>
<!-- Error&#45;&gt;Sync\nSequence  -->
<g id="edge16" class="edge">
<title>Error&#45;&gt;Sync\nSequence </title>
<path fill="none" stroke="black" d="M56.17,-181.51C64.12,-181.51 73.22,-181.51 82.61,-181.51"/>
<polygon fill="black" stroke="black" points="82.87,-185.01 92.87,-181.51 82.87,-178.01 82.87,-185.01"/>
</g>
<!-- Transmit\nStates -->
<g id="node3" class="node">
<title>Transmit\nStates</title>
<ellipse fill="lightskyblue" stroke="lightskyblue" cx="1609.9" cy="-296.51" rx="57.05" ry="26.74"/>
<text text-anchor="middle" x="1609.9" y="-300.31" font-family="Times,serif" font-size="14.00">Transmit</text>
<text text-anchor="middle" x="1609.9" y="-285.31" font-family="Times,serif" font-size="14.00">States</text>
</g>
<!-- Idle -->
<g id="node8" class="node">
<title>Idle</title>
<ellipse fill="aquamarine" stroke="aquamarine" cx="908.42" cy="-212.51" rx="28.7" ry="18"/>
<text text-anchor="middle" x="908.42" y="-208.81" font-family="Times,serif" font-size="14.00">Idle</text>
</g>
<!-- Transmit\nStates&#45;&gt;Idle -->
<g id="edge11" class="edge">
<title>Transmit\nStates&#45;&gt;Idle</title>
<path fill="none" stroke="black" d="M1552.96,-292.77C1453.38,-286 1238.85,-271.02 1058.02,-255.51 1012.2,-251.58 998.04,-261.78 955.02,-245.51 947.61,-242.71 940.31,-238.37 933.81,-233.74"/>
<polygon fill="black" stroke="black" points="935.56,-230.68 925.49,-227.39 931.31,-236.24 935.56,-230.68"/>
</g>
<!-- Receive\nStates -->
<g id="node4" class="node">
<title>Receive\nStates</title>
<ellipse fill="lightskyblue" stroke="lightskyblue" cx="1609.9" cy="-222.51" rx="50.82" ry="26.74"/>
<text text-anchor="middle" x="1609.9" y="-226.31" font-family="Times,serif" font-size="14.00">Receive</text>
<text text-anchor="middle" x="1609.9" y="-211.31" font-family="Times,serif" font-size="14.00">States</text>
</g>
<!-- Receive\nStates&#45;&gt;Idle -->
<g id="edge13" class="edge">
<title>Receive\nStates&#45;&gt;Idle</title>
<path fill="none" stroke="black" d="M1558.56,-221.79C1425.36,-219.89 1065.78,-214.75 947.62,-213.06"/>
<polygon fill="black" stroke="black" points="947.32,-209.55 937.28,-212.91 947.22,-216.55 947.32,-209.55"/>
</g>
<!-- Directory\nStates -->
<g id="node5" class="node">
<title>Directory\nStates</title>
<ellipse fill="lightskyblue" stroke="lightskyblue" cx="1609.9" cy="-143.51" rx="59.29" ry="26.74"/>
<text text-anchor="middle" x="1609.9" y="-147.31" font-family="Times,serif" font-size="14.00">Directory</text>
<text text-anchor="middle" x="1609.9" y="-132.31" font-family="Times,serif" font-size="14.00">States</text>
</g>
<!-- Directory\nStates&#45;&gt;Idle -->
<g id="edge15" class="edge">
<title>Directory\nStates&#45;&gt;Idle</title>
<path fill="none" stroke="black" d="M1550.28,-143.69C1516.67,-144 1473.7,-144.75 1435.5,-146.51 1267.19,-154.27 1225.41,-162.25 1058.02,-181.51 1012.18,-186.79 999.72,-183.06 955.02,-194.51 950.64,-195.64 946.1,-197.07 941.68,-198.63"/>
<polygon fill="black" stroke="black" points="940.36,-195.39 932.25,-202.21 942.84,-201.94 940.36,-195.39"/>
</g>
<!-- End -->
<g id="node6" class="node">
<title>End</title>
<polygon fill="lightskyblue" stroke="lightskyblue" points="1636.9,-81.51 1582.9,-81.51 1582.9,-45.51 1636.9,-45.51 1636.9,-81.51"/>
<text text-anchor="middle" x="1609.9" y="-59.81" font-family="Times,serif" font-size="14.00">End</text>
</g>
<!-- Sync\nSequence&#45;&gt;Idle -->
<g id="edge2" class="edge">
<title>Sync\nSequence&#45;&gt;Idle</title>
<path fill="none" stroke="black" d="M357.43,-265.29C460.82,-277.25 684.21,-293.61 861.83,-240.51 868.52,-238.51 875.22,-235.27 881.35,-231.68"/>
<polygon fill="black" stroke="black" points="883.27,-234.61 889.83,-226.29 879.52,-228.7 883.27,-234.61"/>
</g>
<!-- Idle&#45;&gt;Transmit\nStates -->
<g id="edge10" class="edge">
<title>Idle&#45;&gt;Transmit\nStates</title>
<path fill="none" stroke="black" d="M912.73,-230.5C917.73,-251.94 929.5,-286.83 955.02,-302.51 1146.72,-420.29 1433.48,-352.12 1553.24,-315.32"/>
<polygon fill="black" stroke="black" points="1554.43,-318.61 1562.93,-312.29 1552.34,-311.93 1554.43,-318.61"/>
<text text-anchor="middle" x="1229.31" y="-372.31" font-family="Times,serif" font-size="14.00">Send file</text>
</g>
<!-- Idle&#45;&gt;Receive\nStates -->
<g id="edge12" class="edge">
<title>Idle&#45;&gt;Receive\nStates</title>
<path fill="none" stroke="black" d="M933.72,-221.44C940.52,-223.53 947.98,-225.45 955.02,-226.51 1208.84,-264.6 1275.93,-233.22 1532.5,-226.51 1537.9,-226.37 1543.5,-226.17 1549.12,-225.94"/>
<polygon fill="black" stroke="black" points="1549.36,-229.43 1559.19,-225.49 1549.04,-222.44 1549.36,-229.43"/>
<text text-anchor="middle" x="1229.31" y="-248.31" font-family="Times,serif" font-size="14.00">Receive file</text>
</g>
<!-- Idle&#45;&gt;Directory\nStates -->
<g id="edge14" class="edge">
<title>Idle&#45;&gt;Directory\nStates</title>
<path fill="none" stroke="black" d="M936.67,-209.44C986.5,-203.85 1095.67,-191.74 1187.81,-182.51 1312.46,-170.02 1458.02,-156.86 1541.24,-149.46"/>
<polygon fill="black" stroke="black" points="1541.67,-152.94 1551.32,-148.57 1541.05,-145.97 1541.67,-152.94"/>
<text text-anchor="middle" x="1229.31" y="-201.31" font-family="Times,serif" font-size="14.00">Read</text>
<text text-anchor="middle" x="1229.31" y="-186.31" font-family="Times,serif" font-size="14.00">directory</text>
</g>
<!-- Idle&#45;&gt;Idle -->
<g id="edge9" class="edge">
<title>Idle&#45;&gt;Idle</title>
<path fill="none" stroke="black" d="M893.38,-228.05C889.14,-238.42 894.16,-248.51 908.42,-248.51 917.79,-248.51 923.16,-244.17 924.56,-238.25"/>
<polygon fill="black" stroke="black" points="928.01,-237.63 923.47,-228.05 921.05,-238.37 928.01,-237.63"/>
<text text-anchor="middle" x="908.42" y="-267.31" font-family="Times,serif" font-size="14.00">Idle</text>
<text text-anchor="middle" x="908.42" y="-252.31" font-family="Times,serif" font-size="14.00">character</text>
</g>
<!-- Send Exit -->
<g id="node9" class="node">
<title>Send Exit</title>
<ellipse fill="aquamarine" stroke="aquamarine" cx="1113.92" cy="-71.51" rx="55.79" ry="18"/>
<text text-anchor="middle" x="1113.92" y="-67.81" font-family="Times,serif" font-size="14.00">Send Exit</text>
</g>
<!-- Idle&#45;&gt;Send Exit -->
<g id="edge3" class="edge">
<title>Idle&#45;&gt;Send Exit</title>
<path fill="none" stroke="black" d="M911.47,-194.22C915.31,-169.03 926.03,-124.09 955.02,-100.51 980.86,-79.5 1016.97,-71.78 1048.15,-69.53"/>
<polygon fill="black" stroke="black" points="1048.71,-73 1058.51,-68.96 1048.33,-66.01 1048.71,-73"/>
<text text-anchor="middle" x="997.52" y="-104.31" font-family="Times,serif" font-size="14.00">Normal exit</text>
</g>
<!-- Exit Await\nResponse -->
<g id="node10" class="node">
<title>Exit Await\nResponse</title>
<ellipse fill="aquamarine" stroke="aquamarine" cx="1353.16" cy="-59.51" rx="64.19" ry="26.74"/>
<text text-anchor="middle" x="1353.16" y="-63.31" font-family="Times,serif" font-size="14.00">Exit Await</text>
<text text-anchor="middle" x="1353.16" y="-48.31" font-family="Times,serif" font-size="14.00">Response</text>
</g>
<!-- Send Exit&#45;&gt;Exit Await\nResponse -->
<g id="edge4" class="edge">
<title>Send Exit&#45;&gt;Exit Await\nResponse</title>
<path fill="none" stroke="black" d="M1155.04,-83.92C1165.6,-86.65 1177.04,-89.13 1187.81,-90.51 1224.4,-95.2 1234.53,-97.19 1270.81,-90.51 1280.3,-88.77 1290.11,-85.96 1299.5,-82.74"/>
<polygon fill="black" stroke="black" points="1300.89,-85.96 1309.09,-79.25 1298.5,-79.38 1300.89,-85.96"/>
</g>
<!-- Exit Await\nResponse&#45;&gt;End -->
<g id="edge7" class="edge">
<title>Exit Await\nResponse&#45;&gt;End</title>
<path fill="none" stroke="black" d="M1417.78,-60.51C1466.62,-61.28 1532.3,-62.31 1572.56,-62.94"/>
<polygon fill="black" stroke="black" points="1572.66,-66.44 1582.72,-63.1 1572.77,-59.44 1572.66,-66.44"/>
<text text-anchor="middle" x="1484" y="-81.31" font-family="Times,serif" font-size="14.00">Timeout</text>
<text text-anchor="middle" x="1484" y="-66.31" font-family="Times,serif" font-size="14.00">Out of retries</text>
</g>
<!-- Exit Await\nResponse&#45;&gt;End -->
<g id="edge8" class="edge">
<title>Exit Await\nResponse&#45;&gt;End</title>
<path fill="none" stroke="black" d="M1409.49,-46.36C1418.15,-44.76 1427.04,-43.39 1435.5,-42.51 1478.39,-38.08 1489.78,-36.75 1532.5,-42.51 1545.95,-44.33 1560.38,-47.86 1573.03,-51.52"/>
<polygon fill="black" stroke="black" points="1572.16,-54.91 1582.75,-54.45 1574.18,-48.21 1572.16,-54.91"/>
<text text-anchor="middle" x="1484" y="-46.31" font-family="Times,serif" font-size="14.00">ACK</text>
</g>
<!-- Exit Await\nResponse&#45;&gt;Send Exit -->
<g id="edge5" class="edge">
<title>Exit Await\nResponse&#45;&gt;Send Exit</title>
<path fill="none" stroke="black" d="M1289.58,-54.86C1258.85,-53.47 1221.31,-53.1 1187.81,-56.51 1181.88,-57.12 1175.72,-57.99 1169.61,-59.01"/>
<polygon fill="black" stroke="black" points="1168.63,-55.64 1159.41,-60.86 1169.88,-62.52 1168.63,-55.64"/>
<text text-anchor="middle" x="1229.31" y="-75.31" font-family="Times,serif" font-size="14.00">Timeout,</text>
<text text-anchor="middle" x="1229.31" y="-60.31" font-family="Times,serif" font-size="14.00">retry</text>
</g>
<!-- Exit Await\nResponse&#45;&gt;Send Exit -->
<g id="edge6" class="edge">
<title>Exit Await\nResponse&#45;&gt;Send Exit</title>
<path fill="none" stroke="black" d="M1302.76,-42.49C1292.33,-39.59 1281.3,-37.03 1270.81,-35.51 1234.3,-30.24 1223.73,-27.12 1187.81,-35.51 1174.58,-38.6 1160.99,-44.46 1149.19,-50.56"/>
<polygon fill="black" stroke="black" points="1147.27,-47.62 1140.14,-55.47 1150.6,-53.78 1147.27,-47.62"/>
<text text-anchor="middle" x="1229.31" y="-39.31" font-family="Times,serif" font-size="14.00">NAK</text>
</g>
<!-- Send Abort -->
<g id="node12" class="node">
<title>Send Abort</title>
<ellipse fill="aquamarine" stroke="aquamarine" cx="440.95" cy="-181.51" rx="63.09" ry="18"/>
<text text-anchor="middle" x="440.95" y="-177.81" font-family="Times,serif" font-size="14.00">Send Abort</text>
</g>
<!-- Sync\nSequence &#45;&gt;Send Abort -->
<g id="edge17" class="edge">
<title>Sync\nSequence &#45;&gt;Send Abort</title>
<path fill="none" stroke="black" d="M220.29,-181.51C263.79,-181.51 321.86,-181.51 367.37,-181.51"/>
<polygon fill="black" stroke="black" points="367.47,-185.01 377.47,-181.51 367.47,-178.01 367.47,-185.01"/>
</g>
<!-- Abort Await\nResponse -->
<g id="node13" class="node">
<title>Abort Await\nResponse</title>
<ellipse fill="aquamarine" stroke="aquamarine" cx="675.41" cy="-181.51" rx="71.34" ry="26.74"/>
<text text-anchor="middle" x="675.41" y="-185.31" font-family="Times,serif" font-size="14.00">Abort Await</text>
<text text-anchor="middle" x="675.41" y="-170.31" font-family="Times,serif" font-size="14.00">Response</text>
</g>
<!-- Send Abort&#45;&gt;Abort Await\nResponse -->
<g id="edge18" class="edge">
<title>Send Abort&#45;&gt;Abort Await\nResponse</title>
<path fill="none" stroke="black" d="M473.86,-196.99C488.21,-203.13 505.58,-209.45 521.99,-212.51 549.95,-217.74 557.95,-217.29 585.99,-212.51 596.32,-210.75 607.05,-207.92 617.32,-204.66"/>
<polygon fill="black" stroke="black" points="618.63,-207.91 627.01,-201.42 616.41,-201.27 618.63,-207.91"/>
</g>
<!-- Abort Await\nResponse&#45;&gt;Idle -->
<g id="edge21" class="edge">
<title>Abort Await\nResponse&#45;&gt;Idle</title>
<path fill="none" stroke="black" d="M742.92,-190.44C784.23,-195.98 835.81,-202.9 870.08,-207.5"/>
<polygon fill="black" stroke="black" points="869.76,-210.99 880.14,-208.85 870.69,-204.05 869.76,-210.99"/>
<text text-anchor="middle" x="813.33" y="-225.31" font-family="Times,serif" font-size="14.00">Timeout</text>
<text text-anchor="middle" x="813.33" y="-210.31" font-family="Times,serif" font-size="14.00">Out of retries</text>
</g>
<!-- Abort Await\nResponse&#45;&gt;Idle -->
<g id="edge22" class="edge">
<title>Abort Await\nResponse&#45;&gt;Idle</title>
<path fill="none" stroke="black" d="M738.27,-168.41C775.17,-163.28 822.36,-161.52 861.83,-175.51 870.53,-178.6 878.78,-184.13 885.81,-189.99"/>
<polygon fill="black" stroke="black" points="883.69,-192.79 893.46,-196.9 888.38,-187.6 883.69,-192.79"/>
<text text-anchor="middle" x="813.33" y="-179.31" font-family="Times,serif" font-size="14.00">ACK</text>
</g>
<!-- Abort Await\nResponse&#45;&gt;Send Abort -->
<g id="edge19" class="edge">
<title>Abort Await\nResponse&#45;&gt;Send Abort</title>
<path fill="none" stroke="black" d="M603.95,-178.91C597.88,-178.75 591.83,-178.61 585.99,-178.51 557.55,-178.03 550.43,-177.98 521.99,-178.51 519.28,-178.56 516.52,-178.62 513.73,-178.69"/>
<polygon fill="black" stroke="black" points="513.46,-175.2 503.56,-178.97 513.65,-182.19 513.46,-175.2"/>
<text text-anchor="middle" x="553.99" y="-197.31" font-family="Times,serif" font-size="14.00">Timeout,</text>
<text text-anchor="middle" x="553.99" y="-182.31" font-family="Times,serif" font-size="14.00">retry</text>
</g>
<!-- Abort Await\nResponse&#45;&gt;Send Abort -->
<g id="edge20" class="edge">
<title>Abort Await\nResponse&#45;&gt;Send Abort</title>
<path fill="none" stroke="black" d="M618.19,-165.35C607.58,-162.92 596.51,-160.8 585.99,-159.51 557.76,-156.05 550.18,-155.71 521.99,-159.51 512.45,-160.8 502.44,-162.91 492.85,-165.33"/>
<polygon fill="black" stroke="black" points="491.81,-161.99 483.05,-167.94 493.62,-168.75 491.81,-161.99"/>
<text text-anchor="middle" x="553.99" y="-163.31" font-family="Times,serif" font-size="14.00">NAK</text>
</g>
</g>
</svg>
