<?xml version="1.0" encoding="UTF-8" standalone="no"?>
<!DOCTYPE svg PUBLIC "-//W3C//DTD SVG 1.1//EN"
 "http://www.w3.org/Graphics/SVG/1.1/DTD/svg11.dtd">
<!-- Generated by graphviz version 2.42.4 (0)
 -->
<!-- Title: CPU_Block Pages: 1 -->
<svg width="588pt" height="852pt"
 viewBox="0.00 0.00 588.00 852.35" xmlns="http://www.w3.org/2000/svg" xmlns:xlink="http://www.w3.org/1999/xlink">
<g id="graph0" class="graph" transform="scale(1 1) rotate(0) translate(4 848.35)">
<title>CPU_Block</title>
<polygon fill="white" stroke="transparent" points="-4,4 -4,-848.35 584,-848.35 584,4 -4,4"/>
<text text-anchor="middle" x="290" y="-10" font-family="Times,serif" font-size="20.00">Linux Side Master State Diagram</text>
<!-- Start -->
<g id="node1" class="node">
<title>Start</title>
<ellipse fill="lightskyblue" stroke="lightskyblue" cx="46" cy="-826.35" rx="34.39" ry="18"/>
<text text-anchor="middle" x="46" y="-822.65" font-family="Times,serif" font-size="14.00">Start</text>
</g>
<!-- Send\nReset -->
<g id="node7" class="node">
<title>Send\nReset</title>
<polygon fill="aquamarine" stroke="aquamarine" points="74.5,-771.35 17.5,-771.35 17.5,-733.35 74.5,-733.35 74.5,-771.35"/>
<text text-anchor="middle" x="46" y="-756.15" font-family="Times,serif" font-size="14.00">Send</text>
<text text-anchor="middle" x="46" y="-741.15" font-family="Times,serif" font-size="14.00">Reset</text>
</g>
<!-- Start&#45;&gt;Send\nReset -->
<g id="edge1" class="edge">
<title>Start&#45;&gt;Send\nReset</title>
<path fill="none" stroke="black" d="M46,-808.28C46,-800.33 46,-790.66 46,-781.66"/>
<polygon fill="black" stroke="black" points="49.5,-781.54 46,-771.54 42.5,-781.54 49.5,-781.54"/>
</g>
<!-- End -->
<g id="node2" class="node">
<title>End</title>
<ellipse fill="lightskyblue" stroke="lightskyblue" cx="259" cy="-48" rx="29.5" ry="18"/>
<text text-anchor="middle" x="259" y="-44.3" font-family="Times,serif" font-size="14.00">End</text>
</g>
<!-- Determine\nFunction -->
<g id="node3" class="node">
<title>Determine\nFunction</title>
<polygon fill="aquamarine" stroke="aquamarine" points="241,-580.35 149,-542.35 241,-504.35 333,-542.35 241,-580.35"/>
<text text-anchor="middle" x="241" y="-546.15" font-family="Times,serif" font-size="14.00">Determine</text>
<text text-anchor="middle" x="241" y="-531.15" font-family="Times,serif" font-size="14.00">Function</text>
</g>
<!-- Transmit\nStates -->
<g id="node4" class="node">
<title>Transmit\nStates</title>
<ellipse fill="lightyellow" stroke="lightyellow" cx="137" cy="-338.07" rx="57.07" ry="57.07"/>
<ellipse fill="none" stroke="lightyellow" cx="137" cy="-338.07" rx="61.05" ry="61.05"/>
<text text-anchor="middle" x="137" y="-341.87" font-family="Times,serif" font-size="14.00">Transmit</text>
<text text-anchor="middle" x="137" y="-326.87" font-family="Times,serif" font-size="14.00">States</text>
</g>
<!-- Determine\nFunction&#45;&gt;Transmit\nStates -->
<g id="edge12" class="edge">
<title>Determine\nFunction&#45;&gt;Transmit\nStates</title>
<path fill="none" stroke="black" d="M205.31,-518.86C193.8,-510.01 181.97,-498.93 174,-486.35 159.43,-463.34 150.59,-434.93 145.23,-409.21"/>
<polygon fill="black" stroke="black" points="148.62,-408.28 143.28,-399.13 141.74,-409.62 148.62,-408.28"/>
<text text-anchor="middle" x="205.5" y="-475.15" font-family="Times,serif" font-size="14.00">Send file</text>
</g>
<!-- Receive\nStates -->
<g id="node5" class="node">
<title>Receive\nStates</title>
<ellipse fill="lightyellow" stroke="lightyellow" cx="258" cy="-338.07" rx="50.83" ry="50.83"/>
<ellipse fill="none" stroke="lightyellow" cx="258" cy="-338.07" rx="54.82" ry="54.82"/>
<text text-anchor="middle" x="258" y="-341.87" font-family="Times,serif" font-size="14.00">Receive</text>
<text text-anchor="middle" x="258" y="-326.87" font-family="Times,serif" font-size="14.00">States</text>
</g>
<!-- Determine\nFunction&#45;&gt;Receive\nStates -->
<g id="edge14" class="edge">
<title>Determine\nFunction&#45;&gt;Receive\nStates</title>
<path fill="none" stroke="black" d="M240.8,-504.26C240.94,-493.62 241.28,-482.02 242,-471.35 243.51,-448.93 246.18,-424.49 248.91,-402.78"/>
<polygon fill="black" stroke="black" points="252.4,-403.05 250.2,-392.69 245.46,-402.16 252.4,-403.05"/>
<text text-anchor="middle" x="283" y="-475.15" font-family="Times,serif" font-size="14.00">Receive file</text>
</g>
<!-- Directory\nStates -->
<g id="node6" class="node">
<title>Directory\nStates</title>
<ellipse fill="lightyellow" stroke="lightyellow" cx="338" cy="-195.4" rx="59.3" ry="59.3"/>
<ellipse fill="none" stroke="lightyellow" cx="338" cy="-195.4" rx="63.29" ry="63.29"/>
<text text-anchor="middle" x="338" y="-199.2" font-family="Times,serif" font-size="14.00">Directory</text>
<text text-anchor="middle" x="338" y="-184.2" font-family="Times,serif" font-size="14.00">States</text>
</g>
<!-- Determine\nFunction&#45;&gt;Directory\nStates -->
<g id="edge16" class="edge">
<title>Determine\nFunction&#45;&gt;Directory\nStates</title>
<path fill="none" stroke="black" d="M285.07,-522.48C300.05,-513.75 315.2,-501.82 324,-486.35 344.31,-450.62 344.42,-342.75 341.83,-269.15"/>
<polygon fill="black" stroke="black" points="345.32,-268.86 341.45,-259 338.33,-269.12 345.32,-268.86"/>
<text text-anchor="middle" x="372" y="-439.15" font-family="Times,serif" font-size="14.00">Read</text>
<text text-anchor="middle" x="372" y="-424.15" font-family="Times,serif" font-size="14.00">directory</text>
</g>
<!-- Send Exit -->
<g id="node9" class="node">
<title>Send Exit</title>
<polygon fill="aquamarine" stroke="aquamarine" points="508,-453.35 422,-453.35 422,-417.35 508,-417.35 508,-453.35"/>
<text text-anchor="middle" x="465" y="-431.65" font-family="Times,serif" font-size="14.00">Send Exit</text>
</g>
<!-- Determine\nFunction&#45;&gt;Send Exit -->
<g id="edge6" class="edge">
<title>Determine\nFunction&#45;&gt;Send Exit</title>
<path fill="none" stroke="black" d="M283.13,-521.6C321.97,-503.39 379.46,-476.44 419.37,-457.73"/>
<polygon fill="black" stroke="black" points="421.04,-460.82 428.61,-453.4 418.07,-454.48 421.04,-460.82"/>
<text text-anchor="middle" x="428.5" y="-475.15" font-family="Times,serif" font-size="14.00">Normal exit</text>
</g>
<!-- Transmit\nStates&#45;&gt;End -->
<g id="edge13" class="edge">
<title>Transmit\nStates&#45;&gt;End</title>
<path fill="none" stroke="black" d="M160.67,-281.19C187.01,-218.99 228.43,-121.17 248.03,-74.9"/>
<polygon fill="black" stroke="black" points="251.3,-76.16 251.98,-65.58 244.85,-73.43 251.3,-76.16"/>
</g>
<!-- Receive\nStates&#45;&gt;End -->
<g id="edge15" class="edge">
<title>Receive\nStates&#45;&gt;End</title>
<path fill="none" stroke="black" d="M258.19,-282.89C258.4,-221.35 258.74,-123.37 258.91,-76.17"/>
<polygon fill="black" stroke="black" points="262.41,-76.12 258.94,-66.11 255.41,-76.09 262.41,-76.12"/>
</g>
<!-- Directory\nStates&#45;&gt;End -->
<g id="edge17" class="edge">
<title>Directory\nStates&#45;&gt;End</title>
<path fill="none" stroke="black" d="M308.13,-139.43C296.04,-117.17 282.67,-92.56 272.93,-74.63"/>
<polygon fill="black" stroke="black" points="275.77,-72.54 267.92,-65.42 269.62,-75.88 275.77,-72.54"/>
</g>
<!-- Await ACK -->
<g id="node8" class="node">
<title>Await ACK</title>
<polygon fill="aquamarine" stroke="aquamarine" points="92,-667.35 0,-667.35 0,-631.35 92,-631.35 92,-667.35"/>
<text text-anchor="middle" x="46" y="-645.65" font-family="Times,serif" font-size="14.00">Await ACK</text>
</g>
<!-- Send\nReset&#45;&gt;Await ACK -->
<g id="edge2" class="edge">
<title>Send\nReset&#45;&gt;Await ACK</title>
<path fill="none" stroke="black" d="M44.79,-733.04C44.46,-727.37 44.16,-721.1 44,-715.35 43.63,-702.02 43.62,-698.67 44,-685.35 44.07,-682.79 44.18,-680.13 44.3,-677.47"/>
<polygon fill="black" stroke="black" points="47.79,-677.6 44.83,-667.43 40.8,-677.23 47.79,-677.6"/>
</g>
<!-- Await ACK&#45;&gt;End -->
<g id="edge4" class="edge">
<title>Await ACK&#45;&gt;End</title>
<path fill="none" stroke="black" d="M41.71,-631C36.97,-610.29 30,-574.51 30,-543.35 30,-543.35 30,-543.35 30,-194.4 30,-104.99 155.94,-68.23 221.02,-55.2"/>
<polygon fill="black" stroke="black" points="221.76,-58.62 230.92,-53.31 220.44,-51.75 221.76,-58.62"/>
<text text-anchor="middle" x="78.5" y="-439.15" font-family="Times,serif" font-size="14.00">Timeout</text>
<text text-anchor="middle" x="78.5" y="-424.15" font-family="Times,serif" font-size="14.00">Out of retries</text>
</g>
<!-- Await ACK&#45;&gt;Determine\nFunction -->
<g id="edge5" class="edge">
<title>Await ACK&#45;&gt;Determine\nFunction</title>
<path fill="none" stroke="black" d="M77.76,-631.24C109,-614.42 157.1,-588.52 193,-569.19"/>
<polygon fill="black" stroke="black" points="194.7,-572.25 201.85,-564.43 191.38,-566.09 194.7,-572.25"/>
<text text-anchor="middle" x="152.5" y="-602.15" font-family="Times,serif" font-size="14.00">ACK</text>
</g>
<!-- Await ACK&#45;&gt;Send\nReset -->
<g id="edge3" class="edge">
<title>Await ACK&#45;&gt;Send\nReset</title>
<path fill="none" stroke="black" d="M46,-667.57C46,-682.8 46,-705.3 46,-723.15"/>
<polygon fill="black" stroke="black" points="42.5,-723.29 46,-733.29 49.5,-723.29 42.5,-723.29"/>
<text text-anchor="middle" x="78" y="-704.15" font-family="Times,serif" font-size="14.00">Timeout,</text>
<text text-anchor="middle" x="78" y="-689.15" font-family="Times,serif" font-size="14.00">retry</text>
</g>
<!-- Exit Await\nResponse -->
<g id="node10" class="node">
<title>Exit Await\nResponse</title>
<polygon fill="aquamarine" stroke="aquamarine" points="510.5,-214.4 419.5,-214.4 419.5,-176.4 510.5,-176.4 510.5,-214.4"/>
<text text-anchor="middle" x="465" y="-199.2" font-family="Times,serif" font-size="14.00">Exit Await</text>
<text text-anchor="middle" x="465" y="-184.2" font-family="Times,serif" font-size="14.00">Response</text>
</g>
<!-- Send Exit&#45;&gt;Exit Await\nResponse -->
<g id="edge7" class="edge">
<title>Send Exit&#45;&gt;Exit Await\nResponse</title>
<path fill="none" stroke="black" d="M453.53,-417.25C450.46,-411.76 447.57,-405.51 446,-399.35 430.49,-338.26 445.75,-263.95 456.48,-224.38"/>
<polygon fill="black" stroke="black" points="459.88,-225.21 459.22,-214.63 453.14,-223.31 459.88,-225.21"/>
</g>
<!-- Exit Await\nResponse&#45;&gt;End -->
<g id="edge10" class="edge">
<title>Exit Await\nResponse&#45;&gt;End</title>
<path fill="none" stroke="black" d="M453.41,-176.15C443.53,-162.05 428.08,-143.13 410,-132 383.01,-115.39 369.36,-128.15 341,-114 328.71,-107.87 302.34,-86.31 282.81,-69.69"/>
<polygon fill="black" stroke="black" points="285.05,-67 275.18,-63.15 280.49,-72.31 285.05,-67"/>
<text text-anchor="middle" x="389.5" y="-102.8" font-family="Times,serif" font-size="14.00">Timeout</text>
<text text-anchor="middle" x="389.5" y="-87.8" font-family="Times,serif" font-size="14.00">Out of retries</text>
</g>
<!-- Exit Await\nResponse&#45;&gt;End -->
<g id="edge11" class="edge">
<title>Exit Await\nResponse&#45;&gt;End</title>
<path fill="none" stroke="black" d="M466.09,-176.23C466.5,-151.66 463.27,-108.11 438,-84 418.35,-65.25 344.67,-55.91 298.19,-51.79"/>
<polygon fill="black" stroke="black" points="298.4,-48.3 288.14,-50.95 297.81,-55.27 298.4,-48.3"/>
<text text-anchor="middle" x="471.5" y="-95.3" font-family="Times,serif" font-size="14.00">ACK</text>
</g>
<!-- Exit Await\nResponse&#45;&gt;Send Exit -->
<g id="edge8" class="edge">
<title>Exit Await\nResponse&#45;&gt;Send Exit</title>
<path fill="none" stroke="black" d="M465,-214.65C465,-256.2 465,-358.01 465,-407.06"/>
<polygon fill="black" stroke="black" points="461.5,-407.23 465,-417.23 468.5,-407.23 461.5,-407.23"/>
<text text-anchor="middle" x="497" y="-341.87" font-family="Times,serif" font-size="14.00">Timeout,</text>
<text text-anchor="middle" x="497" y="-326.87" font-family="Times,serif" font-size="14.00">retry</text>
</g>
<!-- Exit Await\nResponse&#45;&gt;Send Exit -->
<g id="edge9" class="edge">
<title>Exit Await\nResponse&#45;&gt;Send Exit</title>
<path fill="none" stroke="black" d="M485.85,-214.49C501.35,-229.41 521.26,-252.09 530,-276.79 548.16,-328.14 557.93,-352.58 530,-399.35 526.64,-404.98 522.02,-409.76 516.78,-413.8"/>
<polygon fill="black" stroke="black" points="514.52,-411.1 508.14,-419.56 518.4,-416.93 514.52,-411.1"/>
<text text-anchor="middle" x="563.5" y="-334.37" font-family="Times,serif" font-size="14.00">NAK</text>
</g>
</g>
</svg>
