<?xml version="1.0" encoding="UTF-8" standalone="no"?>
<!DOCTYPE svg PUBLIC "-//W3C//DTD SVG 1.1//EN"
 "http://www.w3.org/Graphics/SVG/1.1/DTD/svg11.dtd">
<!-- Generated by graphviz version 2.42.4 (0)
 -->
<!-- Title: CPU_Block Pages: 1 -->
<svg width="626pt" height="899pt"
 viewBox="0.00 0.00 626.00 899.00" xmlns="http://www.w3.org/2000/svg" xmlns:xlink="http://www.w3.org/1999/xlink">
<g id="graph0" class="graph" transform="scale(1 1) rotate(0) translate(4 895)">
<title>CPU_Block</title>
<polygon fill="white" stroke="transparent" points="-4,4 -4,-895 622,-895 622,4 -4,4"/>
<text text-anchor="middle" x="309" y="-10" font-family="Times,serif" font-size="20.00">Linux Side Transmit File State Diagram</text>
<!-- Start -->
<g id="node1" class="node">
<title>Start</title>
<ellipse fill="lightskyblue" stroke="lightskyblue" cx="350" cy="-873" rx="27.1" ry="18"/>
<text text-anchor="middle" x="350" y="-869.3" font-family="Times,serif" font-size="14.00">Start</text>
</g>
<!-- Calculate\nChecksums -->
<g id="node5" class="node">
<title>Calculate\nChecksums</title>
<polygon fill="aquamarine" stroke="aquamarine" points="390,-818 310,-818 310,-780 390,-780 390,-818"/>
<text text-anchor="middle" x="350" y="-802.8" font-family="Times,serif" font-size="14.00">Calculate</text>
<text text-anchor="middle" x="350" y="-787.8" font-family="Times,serif" font-size="14.00">Checksums</text>
</g>
<!-- Start&#45;&gt;Calculate\nChecksums -->
<g id="edge1" class="edge">
<title>Start&#45;&gt;Calculate\nChecksums</title>
<path fill="none" stroke="black" d="M350,-854.94C350,-846.99 350,-837.31 350,-828.31"/>
<polygon fill="black" stroke="black" points="353.5,-828.2 350,-818.2 346.5,-828.2 353.5,-828.2"/>
</g>
<!-- End -->
<g id="node2" class="node">
<title>End</title>
<ellipse fill="lightskyblue" stroke="lightskyblue" cx="27" cy="-48" rx="27" ry="18"/>
<text text-anchor="middle" x="27" y="-44.3" font-family="Times,serif" font-size="14.00">End</text>
</g>
<!-- Error -->
<g id="node3" class="node">
<title>Error</title>
<ellipse fill="tomato" stroke="tomato" cx="332" cy="-48" rx="29.5" ry="18"/>
<text text-anchor="middle" x="332" y="-44.3" font-family="Times,serif" font-size="14.00">Error</text>
</g>
<!-- End of\nData? -->
<g id="node4" class="node">
<title>End of\nData?</title>
<polygon fill="aquamarine" stroke="aquamarine" points="288,-520 235,-482 288,-444 341,-482 288,-520"/>
<text text-anchor="middle" x="288" y="-485.8" font-family="Times,serif" font-size="14.00">End of</text>
<text text-anchor="middle" x="288" y="-470.8" font-family="Times,serif" font-size="14.00">Data?</text>
</g>
<!-- Build Next\nTxn (Data)\nPacket -->
<g id="node8" class="node">
<title>Build Next\nTxn (Data)\nPacket</title>
<polygon fill="aquamarine" stroke="aquamarine" points="297.5,-393 220.5,-393 220.5,-340 297.5,-340 297.5,-393"/>
<text text-anchor="middle" x="259" y="-377.8" font-family="Times,serif" font-size="14.00">Build Next</text>
<text text-anchor="middle" x="259" y="-362.8" font-family="Times,serif" font-size="14.00">Txn (Data)</text>
<text text-anchor="middle" x="259" y="-347.8" font-family="Times,serif" font-size="14.00">Packet</text>
</g>
<!-- End of\nData?&#45;&gt;Build Next\nTxn (Data)\nPacket -->
<g id="edge10" class="edge">
<title>End of\nData?&#45;&gt;Build Next\nTxn (Data)\nPacket</title>
<path fill="none" stroke="black" d="M280,-449.69C276.32,-435.29 271.94,-418.14 268.13,-403.24"/>
<polygon fill="black" stroke="black" points="271.47,-402.17 265.61,-393.35 264.69,-403.91 271.47,-402.17"/>
<text text-anchor="middle" x="282.5" y="-414.8" font-family="Times,serif" font-size="14.00">No</text>
</g>
<!-- Close\nFile -->
<g id="node9" class="node">
<title>Close\nFile</title>
<polygon fill="aquamarine" stroke="aquamarine" points="166,-385.5 112,-385.5 112,-347.5 166,-347.5 166,-385.5"/>
<text text-anchor="middle" x="139" y="-370.3" font-family="Times,serif" font-size="14.00">Close</text>
<text text-anchor="middle" x="139" y="-355.3" font-family="Times,serif" font-size="14.00">File</text>
</g>
<!-- End of\nData?&#45;&gt;Close\nFile -->
<g id="edge11" class="edge">
<title>End of\nData?&#45;&gt;Close\nFile</title>
<path fill="none" stroke="black" d="M262.72,-461.75C237.44,-442.49 198.47,-412.8 171.04,-391.9"/>
<polygon fill="black" stroke="black" points="172.99,-389 162.92,-385.72 168.75,-394.56 172.99,-389"/>
<text text-anchor="middle" x="224.5" y="-414.8" font-family="Times,serif" font-size="14.00">Yes</text>
</g>
<!-- Send Tx\nCommand -->
<g id="node6" class="node">
<title>Send Tx\nCommand</title>
<polygon fill="aquamarine" stroke="aquamarine" points="387,-743 313,-743 313,-705 387,-705 387,-743"/>
<text text-anchor="middle" x="350" y="-727.8" font-family="Times,serif" font-size="14.00">Send Tx</text>
<text text-anchor="middle" x="350" y="-712.8" font-family="Times,serif" font-size="14.00">Command</text>
</g>
<!-- Calculate\nChecksums&#45;&gt;Send Tx\nCommand -->
<g id="edge2" class="edge">
<title>Calculate\nChecksums&#45;&gt;Send Tx\nCommand</title>
<path fill="none" stroke="black" d="M350,-779.96C350,-771.88 350,-762.18 350,-753.18"/>
<polygon fill="black" stroke="black" points="353.5,-753.09 350,-743.09 346.5,-753.09 353.5,-753.09"/>
</g>
<!-- Await Cmd\nResponse -->
<g id="node7" class="node">
<title>Await Cmd\nResponse</title>
<polygon fill="aquamarine" stroke="aquamarine" points="390,-639 310,-639 310,-601 390,-601 390,-639"/>
<text text-anchor="middle" x="350" y="-623.8" font-family="Times,serif" font-size="14.00">Await Cmd</text>
<text text-anchor="middle" x="350" y="-608.8" font-family="Times,serif" font-size="14.00">Response</text>
</g>
<!-- Send Tx\nCommand&#45;&gt;Await Cmd\nResponse -->
<g id="edge3" class="edge">
<title>Send Tx\nCommand&#45;&gt;Await Cmd\nResponse</title>
<path fill="none" stroke="black" d="M338.12,-704.64C335.21,-699.18 332.5,-693.04 331,-687 327.79,-674.06 327.79,-669.94 331,-657 331.7,-654.17 332.67,-651.32 333.8,-648.52"/>
<polygon fill="black" stroke="black" points="337.02,-649.9 338.12,-639.36 330.69,-646.91 337.02,-649.9"/>
</g>
<!-- Await Cmd\nResponse&#45;&gt;End -->
<g id="edge9" class="edge">
<title>Await Cmd\nResponse&#45;&gt;End</title>
<path fill="none" stroke="black" d="M309.85,-612.19C217.92,-595.45 0,-548.84 0,-483 0,-483 0,-483 0,-150 0,-123.76 8.61,-94.94 16.11,-74.83"/>
<polygon fill="black" stroke="black" points="19.4,-76.03 19.76,-65.44 12.88,-73.49 19.4,-76.03"/>
<text text-anchor="middle" x="28.5" y="-310.8" font-family="Times,serif" font-size="14.00">ACK</text>
<text text-anchor="middle" x="28.5" y="-295.8" font-family="Times,serif" font-size="14.00">(Identical)</text>
</g>
<!-- Await Cmd\nResponse&#45;&gt;Error -->
<g id="edge5" class="edge">
<title>Await Cmd\nResponse&#45;&gt;Error</title>
<path fill="none" stroke="black" d="M358.71,-600.63C361.06,-595.07 363.39,-588.88 365,-583 376.84,-539.71 379,-527.88 379,-483 379,-483 379,-483 379,-150 379,-120.01 378.91,-110.56 365,-84 362.5,-79.22 359.16,-74.63 355.56,-70.43"/>
<polygon fill="black" stroke="black" points="357.88,-67.78 348.48,-62.89 352.78,-72.58 357.88,-67.78"/>
<text text-anchor="middle" x="415.5" y="-310.8" font-family="Times,serif" font-size="14.00">Timeout</text>
<text text-anchor="middle" x="415.5" y="-295.8" font-family="Times,serif" font-size="14.00">Out of retries</text>
</g>
<!-- Await Cmd\nResponse&#45;&gt;Error -->
<g id="edge8" class="edge">
<title>Await Cmd\nResponse&#45;&gt;Error</title>
<path fill="none" stroke="black" d="M384.16,-600.94C421.17,-578.61 475,-536.88 475,-483 475,-483 475,-483 475,-150 475,-98.08 411.34,-70.48 368.97,-57.86"/>
<polygon fill="black" stroke="black" points="369.81,-54.46 359.23,-55.11 367.91,-61.2 369.81,-54.46"/>
<text text-anchor="middle" x="546.5" y="-310.8" font-family="Times,serif" font-size="14.00">NAK (not CRC)</text>
<text text-anchor="middle" x="546.5" y="-295.8" font-family="Times,serif" font-size="14.00">or unexpected packet type</text>
</g>
<!-- Await Cmd\nResponse&#45;&gt;End of\nData? -->
<g id="edge6" class="edge">
<title>Await Cmd\nResponse&#45;&gt;End of\nData?</title>
<path fill="none" stroke="black" d="M327.42,-600.92C322.03,-595.64 316.75,-589.53 313,-583 303.33,-566.19 297.37,-545.7 293.71,-527.66"/>
<polygon fill="black" stroke="black" points="297.12,-526.84 291.85,-517.64 290.23,-528.11 297.12,-526.84"/>
<text text-anchor="middle" x="339" y="-571.8" font-family="Times,serif" font-size="14.00">ACK</text>
<text text-anchor="middle" x="339" y="-556.8" font-family="Times,serif" font-size="14.00">(Not</text>
<text text-anchor="middle" x="339" y="-541.8" font-family="Times,serif" font-size="14.00">Identical)</text>
</g>
<!-- Await Cmd\nResponse&#45;&gt;Send Tx\nCommand -->
<g id="edge4" class="edge">
<title>Await Cmd\nResponse&#45;&gt;Send Tx\nCommand</title>
<path fill="none" stroke="black" d="M350,-639.08C350,-654.48 350,-676.87 350,-694.65"/>
<polygon fill="black" stroke="black" points="346.5,-694.76 350,-704.76 353.5,-694.76 346.5,-694.76"/>
<text text-anchor="middle" x="375.5" y="-675.8" font-family="Times,serif" font-size="14.00">Timeout,</text>
<text text-anchor="middle" x="375.5" y="-660.8" font-family="Times,serif" font-size="14.00">retry</text>
</g>
<!-- Await Cmd\nResponse&#45;&gt;Send Tx\nCommand -->
<g id="edge7" class="edge">
<title>Await Cmd\nResponse&#45;&gt;Send Tx\nCommand</title>
<path fill="none" stroke="black" d="M386.02,-639C392.45,-643.92 398.28,-649.9 402,-657 408.19,-668.81 408.19,-675.19 402,-687 399.85,-691.1 396.99,-694.83 393.73,-698.2"/>
<polygon fill="black" stroke="black" points="391.21,-695.76 386.02,-705 395.84,-701.01 391.21,-695.76"/>
<text text-anchor="middle" x="424.5" y="-675.8" font-family="Times,serif" font-size="14.00">NAK</text>
<text text-anchor="middle" x="424.5" y="-660.8" font-family="Times,serif" font-size="14.00">(CRC)</text>
</g>
<!-- Send\nPacket -->
<g id="node10" class="node">
<title>Send\nPacket</title>
<polygon fill="aquamarine" stroke="aquamarine" points="286,-274 232,-274 232,-236 286,-236 286,-274"/>
<text text-anchor="middle" x="259" y="-258.8" font-family="Times,serif" font-size="14.00">Send</text>
<text text-anchor="middle" x="259" y="-243.8" font-family="Times,serif" font-size="14.00">Packet</text>
</g>
<!-- Build Next\nTxn (Data)\nPacket&#45;&gt;Send\nPacket -->
<g id="edge12" class="edge">
<title>Build Next\nTxn (Data)\nPacket&#45;&gt;Send\nPacket</title>
<path fill="none" stroke="black" d="M259,-339.83C259,-323.18 259,-301.48 259,-284.33"/>
<polygon fill="black" stroke="black" points="262.5,-284.33 259,-274.33 255.5,-284.33 262.5,-284.33"/>
</g>
<!-- Send End -->
<g id="node12" class="node">
<title>Send End</title>
<polygon fill="aquamarine" stroke="aquamarine" points="117.5,-273 48.5,-273 48.5,-237 117.5,-237 117.5,-273"/>
<text text-anchor="middle" x="83" y="-251.3" font-family="Times,serif" font-size="14.00">Send End</text>
</g>
<!-- Close\nFile&#45;&gt;Send End -->
<g id="edge18" class="edge">
<title>Close\nFile&#45;&gt;Send End</title>
<path fill="none" stroke="black" d="M129.75,-347.42C120.63,-329.59 106.61,-302.16 96.29,-281.99"/>
<polygon fill="black" stroke="black" points="99.38,-280.34 91.71,-273.03 93.14,-283.52 99.38,-280.34"/>
</g>
<!-- Await\nData Response -->
<g id="node11" class="node">
<title>Await\nData Response</title>
<polygon fill="aquamarine" stroke="aquamarine" points="335,-170 237,-170 237,-132 335,-132 335,-170"/>
<text text-anchor="middle" x="286" y="-154.8" font-family="Times,serif" font-size="14.00">Await</text>
<text text-anchor="middle" x="286" y="-139.8" font-family="Times,serif" font-size="14.00">Data Response</text>
</g>
<!-- Send\nPacket&#45;&gt;Await\nData Response -->
<g id="edge13" class="edge">
<title>Send\nPacket&#45;&gt;Await\nData Response</title>
<path fill="none" stroke="black" d="M278.91,-235.88C283.42,-230.6 287.59,-224.5 290,-218 294.42,-206.1 294.27,-192.16 292.68,-180.17"/>
<polygon fill="black" stroke="black" points="296.12,-179.5 290.99,-170.23 289.22,-180.68 296.12,-179.5"/>
</g>
<!-- Await\nData Response&#45;&gt;Error -->
<g id="edge15" class="edge">
<title>Await\nData Response&#45;&gt;Error</title>
<path fill="none" stroke="black" d="M282.22,-131.92C280.25,-118.07 279.59,-98.87 287,-84 290.4,-77.18 295.83,-71.3 301.75,-66.4"/>
<polygon fill="black" stroke="black" points="304.01,-69.09 310,-60.35 299.87,-63.44 304.01,-69.09"/>
<text text-anchor="middle" x="326" y="-102.8" font-family="Times,serif" font-size="14.00">Timeout</text>
<text text-anchor="middle" x="326" y="-87.8" font-family="Times,serif" font-size="14.00">Out of Retries</text>
</g>
<!-- Await\nData Response&#45;&gt;End of\nData? -->
<g id="edge17" class="edge">
<title>Await\nData Response&#45;&gt;End of\nData?</title>
<path fill="none" stroke="black" d="M298.5,-170.29C301.57,-175.75 304.42,-181.91 306,-188 328.85,-276.2 315.18,-302.35 306,-393 304.44,-408.38 301.39,-425.04 298.24,-439.69"/>
<polygon fill="black" stroke="black" points="294.82,-438.94 296.06,-449.47 301.65,-440.47 294.82,-438.94"/>
<text text-anchor="middle" x="332.5" y="-303.3" font-family="Times,serif" font-size="14.00">ACK</text>
</g>
<!-- Await\nData Response&#45;&gt;Send\nPacket -->
<g id="edge14" class="edge">
<title>Await\nData Response&#45;&gt;Send\nPacket</title>
<path fill="none" stroke="black" d="M236.91,-157.57C217.78,-162.41 197.67,-171.39 186,-188 178.33,-198.91 178.96,-206.68 186,-218 194.05,-230.94 208.27,-239.37 222.03,-244.78"/>
<polygon fill="black" stroke="black" points="221.28,-248.23 231.88,-248.22 223.59,-241.62 221.28,-248.23"/>
<text text-anchor="middle" x="211.5" y="-206.8" font-family="Times,serif" font-size="14.00">Timeout,</text>
<text text-anchor="middle" x="211.5" y="-191.8" font-family="Times,serif" font-size="14.00">Retry</text>
</g>
<!-- Await\nData Response&#45;&gt;Send\nPacket -->
<g id="edge16" class="edge">
<title>Await\nData Response&#45;&gt;Send\nPacket</title>
<path fill="none" stroke="black" d="M266.72,-170.21C262.36,-175.49 258.33,-181.57 256,-188 251.68,-199.93 251.65,-213.87 253.02,-225.86"/>
<polygon fill="black" stroke="black" points="249.56,-226.42 254.5,-235.79 256.48,-225.38 249.56,-226.42"/>
<text text-anchor="middle" x="271" y="-199.3" font-family="Times,serif" font-size="14.00">NAK</text>
</g>
<!-- Await\nEnd Response -->
<g id="node13" class="node">
<title>Await\nEnd Response</title>
<polygon fill="aquamarine" stroke="aquamarine" points="122,-170 28,-170 28,-132 122,-132 122,-170"/>
<text text-anchor="middle" x="75" y="-154.8" font-family="Times,serif" font-size="14.00">Await</text>
<text text-anchor="middle" x="75" y="-139.8" font-family="Times,serif" font-size="14.00">End Response</text>
</g>
<!-- Send End&#45;&gt;Await\nEnd Response -->
<g id="edge19" class="edge">
<title>Send End&#45;&gt;Await\nEnd Response</title>
<path fill="none" stroke="black" d="M54.45,-236.85C48.23,-231.64 42.47,-225.31 39,-218 33.29,-205.95 33.9,-200.32 39,-188 40.52,-184.34 42.61,-180.85 45.02,-177.6"/>
<polygon fill="black" stroke="black" points="47.69,-179.87 51.56,-170.01 42.38,-175.3 47.69,-179.87"/>
</g>
<!-- Await\nEnd Response&#45;&gt;End -->
<g id="edge23" class="edge">
<title>Await\nEnd Response&#45;&gt;End</title>
<path fill="none" stroke="black" d="M66.42,-131.94C58.86,-116.05 47.78,-92.72 39.28,-74.85"/>
<polygon fill="black" stroke="black" points="42.32,-73.09 34.87,-65.56 36,-76.1 42.32,-73.09"/>
<text text-anchor="middle" x="71.5" y="-95.3" font-family="Times,serif" font-size="14.00">ACK</text>
</g>
<!-- Await\nEnd Response&#45;&gt;Error -->
<g id="edge21" class="edge">
<title>Await\nEnd Response&#45;&gt;Error</title>
<path fill="none" stroke="black" d="M104.15,-131.99C128.71,-117.43 165.16,-97.25 199,-84 230.35,-71.73 267.51,-62.36 294.57,-56.41"/>
<polygon fill="black" stroke="black" points="295.37,-59.82 304.41,-54.3 293.9,-52.98 295.37,-59.82"/>
<text text-anchor="middle" x="238" y="-102.8" font-family="Times,serif" font-size="14.00">Timeout</text>
<text text-anchor="middle" x="238" y="-87.8" font-family="Times,serif" font-size="14.00">Out of Retries</text>
</g>
<!-- Await\nEnd Response&#45;&gt;Send End -->
<g id="edge20" class="edge">
<title>Await\nEnd Response&#45;&gt;Send End</title>
<path fill="none" stroke="black" d="M65.15,-170.18C62.63,-175.74 60.28,-181.98 59,-188 56.23,-201.04 55.14,-205.24 59,-218 60.03,-221.41 61.51,-224.79 63.22,-228.04"/>
<polygon fill="black" stroke="black" points="60.34,-230.04 68.54,-236.75 66.32,-226.39 60.34,-230.04"/>
<text text-anchor="middle" x="84.5" y="-206.8" font-family="Times,serif" font-size="14.00">Timeout,</text>
<text text-anchor="middle" x="84.5" y="-191.8" font-family="Times,serif" font-size="14.00">Retry</text>
</g>
<!-- Await\nEnd Response&#45;&gt;Send End -->
<g id="edge22" class="edge">
<title>Await\nEnd Response&#45;&gt;Send End</title>
<path fill="none" stroke="black" d="M97.8,-170.11C102.75,-175.3 107.31,-181.38 110,-188 115.02,-200.35 114.22,-205.35 110,-218 108.82,-221.54 107.14,-225.02 105.18,-228.33"/>
<polygon fill="black" stroke="black" points="102.26,-226.4 99.53,-236.63 108.05,-230.34 102.26,-226.4"/>
<text text-anchor="middle" x="129" y="-199.3" font-family="Times,serif" font-size="14.00">NAK</text>
</g>
</g>
</svg>
