<?xml version="1.0" encoding="UTF-8" standalone="no"?>
<!DOCTYPE svg PUBLIC "-//W3C//DTD SVG 1.1//EN"
 "http://www.w3.org/Graphics/SVG/1.1/DTD/svg11.dtd">
<!-- Generated by graphviz version 2.42.4 (0)
 -->
<!-- Title: CPU_Block Pages: 1 -->
<svg width="423pt" height="758pt"
 viewBox="0.00 0.00 423.00 758.00" xmlns="http://www.w3.org/2000/svg" xmlns:xlink="http://www.w3.org/1999/xlink">
<g id="graph0" class="graph" transform="scale(1 1) rotate(0) translate(4 754)">
<title>CPU_Block</title>
<polygon fill="white" stroke="transparent" points="-4,4 -4,-754 419,-754 419,4 -4,4"/>
<text text-anchor="middle" x="207.5" y="-10" font-family="Times,serif" font-size="20.00">Linux Side Receive File State Diagram</text>
<!-- Start -->
<g id="node1" class="node">
<title>Start</title>
<ellipse fill="lightskyblue" stroke="lightskyblue" cx="140" cy="-732" rx="27.1" ry="18"/>
<text text-anchor="middle" x="140" y="-728.3" font-family="Times,serif" font-size="14.00">Start</text>
</g>
<!-- Calculate\nChecksums -->
<g id="node4" class="node">
<title>Calculate\nChecksums</title>
<polygon fill="aquamarine" stroke="aquamarine" points="180,-677 100,-677 100,-639 180,-639 180,-677"/>
<text text-anchor="middle" x="140" y="-661.8" font-family="Times,serif" font-size="14.00">Calculate</text>
<text text-anchor="middle" x="140" y="-646.8" font-family="Times,serif" font-size="14.00">Checksums</text>
</g>
<!-- Start&#45;&gt;Calculate\nChecksums -->
<g id="edge1" class="edge">
<title>Start&#45;&gt;Calculate\nChecksums</title>
<path fill="none" stroke="black" d="M140,-713.94C140,-705.99 140,-696.31 140,-687.31"/>
<polygon fill="black" stroke="black" points="143.5,-687.2 140,-677.2 136.5,-687.2 143.5,-687.2"/>
</g>
<!-- End -->
<g id="node2" class="node">
<title>End</title>
<ellipse fill="lightskyblue" stroke="lightskyblue" cx="128" cy="-48" rx="27" ry="18"/>
<text text-anchor="middle" x="128" y="-44.3" font-family="Times,serif" font-size="14.00">End</text>
</g>
<!-- Error -->
<g id="node3" class="node">
<title>Error</title>
<ellipse fill="tomato" stroke="tomato" cx="285" cy="-48" rx="29.5" ry="18"/>
<text text-anchor="middle" x="285" y="-44.3" font-family="Times,serif" font-size="14.00">Error</text>
</g>
<!-- Send Rx\nCommand -->
<g id="node5" class="node">
<title>Send Rx\nCommand</title>
<polygon fill="aquamarine" stroke="aquamarine" points="177,-602 103,-602 103,-564 177,-564 177,-602"/>
<text text-anchor="middle" x="140" y="-586.8" font-family="Times,serif" font-size="14.00">Send Rx</text>
<text text-anchor="middle" x="140" y="-571.8" font-family="Times,serif" font-size="14.00">Command</text>
</g>
<!-- Calculate\nChecksums&#45;&gt;Send Rx\nCommand -->
<g id="edge2" class="edge">
<title>Calculate\nChecksums&#45;&gt;Send Rx\nCommand</title>
<path fill="none" stroke="black" d="M140,-638.96C140,-630.88 140,-621.18 140,-612.18"/>
<polygon fill="black" stroke="black" points="143.5,-612.09 140,-602.09 136.5,-612.09 143.5,-612.09"/>
</g>
<!-- Await Cmd\nResponse -->
<g id="node6" class="node">
<title>Await Cmd\nResponse</title>
<polygon fill="aquamarine" stroke="aquamarine" points="180,-498 100,-498 100,-460 180,-460 180,-498"/>
<text text-anchor="middle" x="140" y="-482.8" font-family="Times,serif" font-size="14.00">Await Cmd</text>
<text text-anchor="middle" x="140" y="-467.8" font-family="Times,serif" font-size="14.00">Response</text>
</g>
<!-- Send Rx\nCommand&#45;&gt;Await Cmd\nResponse -->
<g id="edge3" class="edge">
<title>Send Rx\nCommand&#45;&gt;Await Cmd\nResponse</title>
<path fill="none" stroke="black" d="M128.12,-563.64C125.21,-558.18 122.5,-552.04 121,-546 117.79,-533.06 117.79,-528.94 121,-516 121.7,-513.17 122.67,-510.32 123.8,-507.52"/>
<polygon fill="black" stroke="black" points="127.02,-508.9 128.12,-498.36 120.69,-505.91 127.02,-508.9"/>
</g>
<!-- Await Cmd\nResponse&#45;&gt;End -->
<g id="edge7" class="edge">
<title>Await Cmd\nResponse&#45;&gt;End</title>
<path fill="none" stroke="black" d="M99.88,-462.51C58.51,-443.59 0,-407.33 0,-353.5 0,-353.5 0,-353.5 0,-121 0,-78.82 53.46,-61.09 91.28,-53.82"/>
<polygon fill="black" stroke="black" points="92.23,-57.21 101.48,-52.04 91.02,-50.31 92.23,-57.21"/>
<text text-anchor="middle" x="34" y="-244.8" font-family="Times,serif" font-size="14.00">ACK</text>
<text text-anchor="middle" x="34" y="-229.8" font-family="Times,serif" font-size="14.00">(Checksums</text>
<text text-anchor="middle" x="34" y="-214.8" font-family="Times,serif" font-size="14.00">Match)</text>
</g>
<!-- Await Cmd\nResponse&#45;&gt;Error -->
<g id="edge5" class="edge">
<title>Await Cmd\nResponse&#45;&gt;Error</title>
<path fill="none" stroke="black" d="M180.39,-471.7C239.34,-459.94 342,-428.68 342,-353.5 342,-353.5 342,-353.5 342,-121 342,-99.88 326.74,-81.34 312.01,-68.36"/>
<polygon fill="black" stroke="black" points="313.92,-65.41 303.98,-61.74 309.47,-70.81 313.92,-65.41"/>
<text text-anchor="middle" x="378.5" y="-237.3" font-family="Times,serif" font-size="14.00">Timeout</text>
<text text-anchor="middle" x="378.5" y="-222.3" font-family="Times,serif" font-size="14.00">Out of retries</text>
</g>
<!-- Await Cmd\nResponse&#45;&gt;Send Rx\nCommand -->
<g id="edge4" class="edge">
<title>Await Cmd\nResponse&#45;&gt;Send Rx\nCommand</title>
<path fill="none" stroke="black" d="M140,-498.08C140,-513.48 140,-535.87 140,-553.65"/>
<polygon fill="black" stroke="black" points="136.5,-553.76 140,-563.76 143.5,-553.76 136.5,-553.76"/>
<text text-anchor="middle" x="165.5" y="-534.8" font-family="Times,serif" font-size="14.00">Timeout,</text>
<text text-anchor="middle" x="165.5" y="-519.8" font-family="Times,serif" font-size="14.00">retry</text>
</g>
<!-- Await Cmd\nResponse&#45;&gt;Send Rx\nCommand -->
<g id="edge8" class="edge">
<title>Await Cmd\nResponse&#45;&gt;Send Rx\nCommand</title>
<path fill="none" stroke="black" d="M176.02,-498C182.45,-502.92 188.28,-508.9 192,-516 198.19,-527.81 198.19,-534.19 192,-546 189.85,-550.1 186.99,-553.83 183.73,-557.2"/>
<polygon fill="black" stroke="black" points="181.21,-554.76 176.02,-564 185.84,-560.01 181.21,-554.76"/>
<text text-anchor="middle" x="211" y="-527.3" font-family="Times,serif" font-size="14.00">NAK</text>
</g>
<!-- Send\nData\nReq -->
<g id="node7" class="node">
<title>Send\nData\nReq</title>
<polygon fill="aquamarine" stroke="aquamarine" points="167,-379 113,-379 113,-326 167,-326 167,-379"/>
<text text-anchor="middle" x="140" y="-363.8" font-family="Times,serif" font-size="14.00">Send</text>
<text text-anchor="middle" x="140" y="-348.8" font-family="Times,serif" font-size="14.00">Data</text>
<text text-anchor="middle" x="140" y="-333.8" font-family="Times,serif" font-size="14.00">Req</text>
</g>
<!-- Await Cmd\nResponse&#45;&gt;Send\nData\nReq -->
<g id="edge6" class="edge">
<title>Await Cmd\nResponse&#45;&gt;Send\nData\nReq</title>
<path fill="none" stroke="black" d="M140,-459.9C140,-441.53 140,-412.61 140,-389.55"/>
<polygon fill="black" stroke="black" points="143.5,-389.43 140,-379.43 136.5,-389.43 143.5,-389.43"/>
<text text-anchor="middle" x="166" y="-430.8" font-family="Times,serif" font-size="14.00">ACK</text>
<text text-anchor="middle" x="166" y="-415.8" font-family="Times,serif" font-size="14.00">(Not</text>
<text text-anchor="middle" x="166" y="-400.8" font-family="Times,serif" font-size="14.00">Identical)</text>
</g>
<!-- Await\nData\nResponse -->
<g id="node8" class="node">
<title>Await\nData\nResponse</title>
<polygon fill="aquamarine" stroke="aquamarine" points="207,-260 139,-260 139,-207 207,-207 207,-260"/>
<text text-anchor="middle" x="173" y="-244.8" font-family="Times,serif" font-size="14.00">Await</text>
<text text-anchor="middle" x="173" y="-229.8" font-family="Times,serif" font-size="14.00">Data</text>
<text text-anchor="middle" x="173" y="-214.8" font-family="Times,serif" font-size="14.00">Response</text>
</g>
<!-- Send\nData\nReq&#45;&gt;Await\nData\nResponse -->
<g id="edge9" class="edge">
<title>Send\nData\nReq&#45;&gt;Await\nData\nResponse</title>
<path fill="none" stroke="black" d="M143.42,-325.99C145.7,-311.69 149.16,-293.64 154,-278 154.84,-275.27 155.81,-272.48 156.85,-269.7"/>
<polygon fill="black" stroke="black" points="160.12,-270.95 160.58,-260.36 153.62,-268.35 160.12,-270.95"/>
</g>
<!-- Await\nData\nResponse&#45;&gt;Error -->
<g id="edge11" class="edge">
<title>Await\nData\nResponse&#45;&gt;Error</title>
<path fill="none" stroke="black" d="M200.71,-206.57C205.82,-201.06 210.84,-195.06 215,-189 238.86,-154.25 235.86,-140.56 255,-103 259.84,-93.5 265.45,-83.23 270.5,-74.22"/>
<polygon fill="black" stroke="black" points="273.62,-75.81 275.5,-65.38 267.53,-72.36 273.62,-75.81"/>
<text text-anchor="middle" x="291.5" y="-125.8" font-family="Times,serif" font-size="14.00">Timeout</text>
<text text-anchor="middle" x="291.5" y="-110.8" font-family="Times,serif" font-size="14.00">Out of retries</text>
</g>
<!-- Await\nData\nResponse&#45;&gt;Send\nData\nReq -->
<g id="edge10" class="edge">
<title>Await\nData\nResponse&#45;&gt;Send\nData\nReq</title>
<path fill="none" stroke="black" d="M165.77,-260.12C161.16,-276.49 155.1,-297.95 150.03,-315.96"/>
<polygon fill="black" stroke="black" points="146.59,-315.25 147.24,-325.82 153.33,-317.15 146.59,-315.25"/>
<text text-anchor="middle" x="185.5" y="-296.8" font-family="Times,serif" font-size="14.00">Timeout,</text>
<text text-anchor="middle" x="185.5" y="-281.8" font-family="Times,serif" font-size="14.00">retry</text>
</g>
<!-- Store\nData -->
<g id="node9" class="node">
<title>Store\nData</title>
<polygon fill="aquamarine" stroke="aquamarine" points="126,-141 72,-141 72,-103 126,-103 126,-141"/>
<text text-anchor="middle" x="99" y="-125.8" font-family="Times,serif" font-size="14.00">Store</text>
<text text-anchor="middle" x="99" y="-110.8" font-family="Times,serif" font-size="14.00">Data</text>
</g>
<!-- Await\nData\nResponse&#45;&gt;Store\nData -->
<g id="edge12" class="edge">
<title>Await\nData\nResponse&#45;&gt;Store\nData</title>
<path fill="none" stroke="black" d="M147.27,-206.77C142.24,-201.15 137.23,-195.06 133,-189 124.61,-176.99 116.98,-162.64 111.07,-150.39"/>
<polygon fill="black" stroke="black" points="114.13,-148.68 106.73,-141.11 107.79,-151.65 114.13,-148.68"/>
<text text-anchor="middle" x="151.5" y="-177.8" font-family="Times,serif" font-size="14.00">Data</text>
<text text-anchor="middle" x="151.5" y="-162.8" font-family="Times,serif" font-size="14.00">Packet</text>
</g>
<!-- Close\nFile -->
<g id="node10" class="node">
<title>Close\nFile</title>
<polygon fill="aquamarine" stroke="aquamarine" points="203,-141 149,-141 149,-103 203,-103 203,-141"/>
<text text-anchor="middle" x="176" y="-125.8" font-family="Times,serif" font-size="14.00">Close</text>
<text text-anchor="middle" x="176" y="-110.8" font-family="Times,serif" font-size="14.00">File</text>
</g>
<!-- Await\nData\nResponse&#45;&gt;Close\nFile -->
<g id="edge13" class="edge">
<title>Await\nData\nResponse&#45;&gt;Close\nFile</title>
<path fill="none" stroke="black" d="M173.7,-206.83C174.16,-190.18 174.75,-168.48 175.22,-151.33"/>
<polygon fill="black" stroke="black" points="178.72,-151.42 175.5,-141.33 171.73,-151.23 178.72,-151.42"/>
<text text-anchor="middle" x="192.5" y="-177.8" font-family="Times,serif" font-size="14.00">End</text>
<text text-anchor="middle" x="192.5" y="-162.8" font-family="Times,serif" font-size="14.00">Packet</text>
</g>
<!-- Store\nData&#45;&gt;Send\nData\nReq -->
<g id="edge14" class="edge">
<title>Store\nData&#45;&gt;Send\nData\nReq</title>
<path fill="none" stroke="black" d="M102.26,-141.16C109.03,-178.89 124.72,-266.35 133.59,-315.79"/>
<polygon fill="black" stroke="black" points="130.17,-316.51 135.38,-325.73 137.06,-315.27 130.17,-316.51"/>
</g>
<!-- Close\nFile&#45;&gt;End -->
<g id="edge15" class="edge">
<title>Close\nFile&#45;&gt;End</title>
<path fill="none" stroke="black" d="M163.89,-102.83C157.93,-93.9 150.67,-83.01 144.25,-73.37"/>
<polygon fill="black" stroke="black" points="147.1,-71.34 138.64,-64.96 141.27,-75.22 147.1,-71.34"/>
</g>
</g>
</svg>
